# xmcd
#
# Track frame offsets:
#	150
#	12274
#	24598
#	35786
#	46474
#	57675
#	69568
#	81951
#	92635
#	103478
#	115537
#	128331
#
# Disc length: 1887 seconds
#
# Revision: 0
# Processed by: cddbd v1.5.2PL0 Copyright (c) Steve Scherf et al.
# Submitted via: audiograbber 1.83.01
#
DISCID=a1075d0c
DTITLE=George Jones - Sings Like The Dickens
DYEAR=1964
DGENRE=Country
TTITLE0=It Scares Me Half To Death
TTITLE1=A Rose From A Bride's Bouquet
TTITLE2=When Your House Is Not A Home
TTITLE3=I'm Just Blue Enough
TTITLE4=We Could
TTITLE5=Take Me As I Am (Or Let Me Go)
TTITLE6=Where Did The Sunshine Go
TTITLE7=Making The Rounds
TTITLE8=I've Just Got To See You Once More
TTITLE9=Lovin' Lies
TTITLE10=Just When I Needed You
TTITLE11=My Heart's Bouquet
EXTD=
EXTT0=
EXTT1=
EXTT2=
EXTT3=
EXTT4=
EXTT5=
EXTT6=
EXTT7=
EXTT8=
EXTT9=
EXTT10=
EXTT11=
PLAYORDER=
